<?xml version="1.0" encoding="UTF-8" standalone="no"?>
<!DOCTYPE svg PUBLIC "-//W3C//DTD SVG 1.1//EN"
 "http://www.w3.org/Graphics/SVG/1.1/DTD/svg11.dtd">
<!-- Generated by graphviz version 2.50.0 (0)
 -->
<!-- Title: snakemake_dag Pages: 1 -->
<svg width="264pt" height="188pt"
 viewBox="0.00 0.00 264.00 188.00" xmlns="http://www.w3.org/2000/svg" xmlns:xlink="http://www.w3.org/1999/xlink">
<g id="graph0" class="graph" transform="scale(1 1) rotate(0) translate(4 184)">
<title>snakemake_dag</title>
<polygon fill="white" stroke="transparent" points="-4,4 -4,-184 260,-184 260,4 -4,4"/>
<!-- 0 -->
<g id="node1" class="node">
<title>0</title>
<path fill="none" stroke="#59d856" stroke-width="2" stroke-dasharray="5,2" d="M144,-36C144,-36 114,-36 114,-36 108,-36 102,-30 102,-24 102,-24 102,-12 102,-12 102,-6 108,0 114,0 114,0 144,0 144,0 150,0 156,-6 156,-12 156,-12 156,-24 156,-24 156,-30 150,-36 144,-36"/>
<text text-anchor="middle" x="129" y="-15.5" font-family="sans" font-size="10.00">all</text>
</g>
<!-- 1 -->
<g id="node2" class="node">
<title>1</title>
<path fill="none" stroke="#d6d856" stroke-width="2" stroke-dasharray="5,2" d="M164.5,-108C164.5,-108 93.5,-108 93.5,-108 87.5,-108 81.5,-102 81.5,-96 81.5,-96 81.5,-84 81.5,-84 81.5,-78 87.5,-72 93.5,-72 93.5,-72 164.5,-72 164.5,-72 170.5,-72 176.5,-78 176.5,-84 176.5,-84 176.5,-96 176.5,-96 176.5,-102 170.5,-108 164.5,-108"/>
<text text-anchor="middle" x="129" y="-87.5" font-family="sans" font-size="10.00">generate_report</text>
</g>
<!-- 1&#45;&gt;0 -->
<g id="edge1" class="edge">
<title>1&#45;&gt;0</title>
<path fill="none" stroke="grey" stroke-width="2" d="M129,-71.7C129,-63.98 129,-54.71 129,-46.11"/>
<polygon fill="grey" stroke="grey" stroke-width="2" points="132.5,-46.1 129,-36.1 125.5,-46.1 132.5,-46.1"/>
</g>
<!-- 2 -->
<g id="node3" class="node">
<title>2</title>
<path fill="none" stroke="#56d8d8" stroke-width="2" stroke-dasharray="5,2" d="M110,-180C110,-180 12,-180 12,-180 6,-180 0,-174 0,-168 0,-168 0,-156 0,-156 0,-150 6,-144 12,-144 12,-144 110,-144 110,-144 116,-144 122,-150 122,-156 122,-156 122,-168 122,-168 122,-174 116,-180 110,-180"/>
<text text-anchor="middle" x="61" y="-159.5" font-family="sans" font-size="10.00">generate_naive_table</text>
</g>
<!-- 2&#45;&gt;1 -->
<g id="edge2" class="edge">
<title>2&#45;&gt;1</title>
<path fill="none" stroke="grey" stroke-width="2" d="M77.81,-143.7C86.13,-135.14 96.31,-124.66 105.39,-115.3"/>
<polygon fill="grey" stroke="grey" stroke-width="2" points="107.93,-117.72 112.38,-108.1 102.91,-112.84 107.93,-117.72"/>
</g>
<!-- 3 -->
<g id="node4" class="node">
<title>3</title>
<path fill="none" stroke="#d85656" stroke-width="2" stroke-dasharray="5,2" d="M244,-180C244,-180 152,-180 152,-180 146,-180 140,-174 140,-168 140,-168 140,-156 140,-156 140,-150 146,-144 152,-144 152,-144 244,-144 244,-144 250,-144 256,-150 256,-156 256,-156 256,-168 256,-168 256,-174 250,-180 244,-180"/>
<text text-anchor="middle" x="198" y="-159.5" font-family="sans" font-size="10.00">generate_diag_table</text>
</g>
<!-- 3&#45;&gt;1 -->
<g id="edge3" class="edge">
<title>3&#45;&gt;1</title>
<path fill="none" stroke="grey" stroke-width="2" d="M180.94,-143.7C172.5,-135.14 162.18,-124.66 152.96,-115.3"/>
<polygon fill="grey" stroke="grey" stroke-width="2" points="155.37,-112.77 145.86,-108.1 150.39,-117.68 155.37,-112.77"/>
</g>
</g>
</svg>
